<svg xmlns="http://www.w3.org/2000/svg" width="24" height="24" viewBox="0 0 24 24">
  <g id="default-icon-colony">
    <path d="M14.2501 8.25C14.8434 8.25 15.4234 8.07405 15.9168 7.74441C16.4101 7.41477 16.7947 6.94623 17.0217 6.39805C17.2488 5.84987 17.3082 5.24667 17.1924 4.66473C17.0767 4.08279 16.791 3.54824 16.3714 3.12868C15.9518 2.70912 15.4173 2.4234 14.8354 2.30765C14.2534 2.19189 13.6502 2.2513 13.102 2.47836C12.5539 2.70543 12.0853 3.08994 11.7557 3.58329C11.426 4.07664 11.2501 4.65666 11.2501 5.25C11.2501 6.04565 11.5662 6.80871 12.1288 7.37132C12.6914 7.93393 13.4544 8.25 14.2501 8.25ZM14.2501 3.75C14.5468 3.75 14.8368 3.83797 15.0834 4.0028C15.3301 4.16762 15.5224 4.40189 15.6359 4.67598C15.7494 4.95007 15.7791 5.25167 15.7213 5.54264C15.6634 5.83361 15.5205 6.10088 15.3107 6.31066C15.101 6.52044 14.8337 6.6633 14.5427 6.72118C14.2517 6.77906 13.9501 6.74935 13.6761 6.63582C13.402 6.52229 13.1677 6.33003 13.0029 6.08336C12.8381 5.83668 12.7501 5.54667 12.7501 5.25C12.7501 4.85218 12.9081 4.47065 13.1894 4.18934C13.4707 3.90804 13.8523 3.75 14.2501 3.75ZM20.5604 13.1888C20.5032 13.215 19.8582 13.4963 18.7163 13.4963C17.4179 13.4963 15.4773 13.1325 13.0266 11.6213C12.6537 12.6801 12.1694 13.6964 11.582 14.6531C12.6371 14.9779 13.6295 15.4791 14.5173 16.1353C16.3051 17.4984 17.2501 19.4391 17.2501 21.75C17.2501 21.9489 17.1711 22.1397 17.0304 22.2803C16.8898 22.421 16.699 22.5 16.5001 22.5C16.3012 22.5 16.1104 22.421 15.9698 22.2803C15.8291 22.1397 15.7501 21.9489 15.7501 21.75C15.7501 17.8406 12.4979 16.4334 10.6745 15.9516C10.6229 16.0172 10.5695 16.0838 10.516 16.1484C8.67477 18.3797 6.36758 19.5403 3.80071 19.5403C3.50834 19.5417 3.21609 19.5282 2.92508 19.5C2.72617 19.4801 2.5433 19.382 2.41672 19.2273C2.29013 19.0726 2.23019 18.8739 2.25008 18.675C2.26997 18.4761 2.36807 18.2932 2.52278 18.1666C2.6775 18.0401 2.87617 17.9801 3.07508 18C5.50508 18.2419 7.61914 17.2978 9.35633 15.1875C10.5273 13.7681 11.3251 12.0366 11.7235 10.7813C8.07477 8.65781 5.74414 10.4653 5.71883 10.485C5.64243 10.5502 5.5537 10.5995 5.45792 10.6297C5.36213 10.66 5.26123 10.6708 5.16121 10.6613C5.0612 10.6519 4.9641 10.6224 4.87568 10.5747C4.78727 10.527 4.70934 10.462 4.64652 10.3836C4.5837 10.3052 4.53727 10.215 4.50999 10.1183C4.48271 10.0216 4.47513 9.92045 4.4877 9.82077C4.50028 9.7211 4.53275 9.62497 4.58319 9.53809C4.63363 9.45121 4.70101 9.37534 4.78133 9.315C4.92196 9.2025 8.27071 6.59625 13.1729 9.93094C17.4357 12.8288 19.9163 11.835 19.9398 11.8238C20.0296 11.7813 20.127 11.7572 20.2263 11.7527C20.3255 11.7482 20.4247 11.7635 20.518 11.7977C20.6113 11.8319 20.6969 11.8843 20.7698 11.9518C20.8427 12.0193 20.9014 12.1007 20.9426 12.1911C20.9838 12.2816 21.0066 12.3793 21.0097 12.4786C21.0128 12.5779 20.9961 12.6769 20.9606 12.7697C20.9251 12.8625 20.8716 12.9473 20.803 13.0193C20.7345 13.0912 20.6523 13.1488 20.5613 13.1888H20.5604Z"/>
</g>
</svg>