<svg xmlns="http://www.w3.org/2000/svg" width="20" height="20" viewBox="0 0 20 20">
<g id="default-icon-organismo">
  <path d="M15.8335 1.66602H7.50015C6.58098 1.66602 5.83348 2.41352 5.83348 3.33268V7.98768L1.91098 11.9102C1.79447 12.0267 1.71513 12.1752 1.683 12.3368C1.65086 12.4985 1.66736 12.666 1.73042 12.8182C1.79347 12.9705 1.90026 13.1006 2.03727 13.1922C2.17427 13.2838 2.33536 13.3326 2.50015 13.3327V17.4993C2.50015 17.7204 2.58795 17.9323 2.74423 18.0886C2.90051 18.2449 3.11247 18.3327 3.33348 18.3327H16.6668C16.8878 18.3327 17.0998 18.2449 17.2561 18.0886C17.4124 17.9323 17.5001 17.7204 17.5001 17.4993V3.33268C17.5001 2.41352 16.7526 1.66602 15.8335 1.66602ZM9.16682 16.666H4.16681V12.011L6.66681 9.51102L9.16682 12.011V16.666ZM15.8335 16.666H10.8335V13.3327C10.9985 13.333 11.1598 13.2844 11.2971 13.1929C11.4343 13.1014 11.5413 12.9712 11.6045 12.8187C11.6676 12.6663 11.684 12.4986 11.6516 12.3368C11.6193 12.1751 11.5396 12.0266 11.4226 11.9102L7.50015 7.98768V3.33268H15.8335V16.666Z" />
  <path d="M9.16683 5H10.8335V6.66667H9.16683V5ZM12.5002 5H14.1668V6.66667H12.5002V5ZM12.5002 8.35917H14.1668V10H12.5002V8.35917ZM12.5002 11.6667H14.1668V13.3333H12.5002V11.6667ZM5.8335 12.5H7.50016V14.1667H5.8335V12.5Z" />
</g>
</svg>