<svg xmlns="http://www.w3.org/2000/svg" width="19" height="19" viewBox="0 0 19 19">
<g id="default-icon-category">
  <path fill-rule="evenodd" clip-rule="evenodd" d="M17.4236 8.01271L10.3245 0.913657C10.1594 0.748563 9.99433 0.666016 9.74669 0.666016H1.49198C0.996693 0.666016 0.666504 0.996204 0.666504 1.49149V9.7462C0.666504 9.99385 0.749051 10.1589 0.914145 10.324L8.0132 17.4231C8.50849 17.9184 9.08632 18.166 9.74669 18.166C10.4071 18.166 11.0674 17.9184 11.4802 17.4231L17.4236 11.4797C18.4141 10.4891 18.4141 9.00328 17.4236 8.01271ZM16.2679 10.324L10.3245 16.2674C9.99433 16.5976 9.49905 16.5976 9.16886 16.2674L2.31745 9.41601V2.31696H9.4165L16.2679 9.16837C16.5981 9.49856 16.5981 9.99385 16.2679 10.324ZM6.44481 5.61885C6.44481 5.3712 6.36226 5.20611 6.19716 5.04102C6.11462 4.95847 6.03207 4.87592 5.94952 4.87592C5.61933 4.71083 5.28915 4.79337 5.0415 5.04102C4.87641 5.20611 4.79386 5.3712 4.79386 5.61885C4.79386 5.70139 4.79386 5.86649 4.87641 5.94903C4.87641 6.03158 4.95896 6.11413 5.0415 6.19668C5.2066 6.36177 5.37169 6.44432 5.61933 6.44432C5.86698 6.44432 6.03207 6.36177 6.19716 6.19668C6.36226 6.03158 6.44481 5.86649 6.44481 5.61885Z"/>
</g>
</svg>