<svg xmlns="http://www.w3.org/2000/svg" viewBox="0 0 425.69 228.97"><defs><style>.cls-1{fill:#3c3c3b;}</style></defs><title>Logo BA ppal no claim</title><g id="Layer_2" data-name="Layer 2"><g id="Capa_1" data-name="Capa 1"><path class="cls-1" d="M421.56,181.35,339.91,23.59A42.73,42.73,0,0,0,301.69,0h0a42.73,42.73,0,0,0-38.22,23.59L206,134.63a57.21,57.21,0,0,0-29-25.21,54.91,54.91,0,0,0-7-93.3,111.54,111.54,0,0,0-52.09-12.8H32A31.93,31.93,0,0,0,0,35.26v160a31.92,31.92,0,0,0,32,31.93h93a127.89,127.89,0,0,0,50.46-10.33l5.9-2.85c.33-.16.65-.33,1-.5a31.92,31.92,0,0,0,56.44-3.26,17,17,0,0,1,14.82-10.3h96.32a17,17,0,0,1,14.83,10.3,31.94,31.94,0,0,0,61-13.16A31.33,31.33,0,0,0,421.56,181.35Z"/></g></g></svg>