<svg xmlns="http://www.w3.org/2000/svg" viewBox="0 0 702.5 228.97"><defs><style>.cls-1{fill:#3c3c3b;}</style></defs><title>Logo BA ppal</title><g id="Layer_2" data-name="Layer 2"><g id="Capa_1" data-name="Capa 1"><path class="cls-1" d="M413.4,71.6H387V17.41h25c10.86,0,16.32,5.62,16.32,14.68A12.65,12.65,0,0,1,423,42.71c4.6,2.42,7.41,6.8,7.41,13C430.42,65.36,423.86,71.6,413.4,71.6ZM397.31,26.78V38.73H412a6,6,0,0,0,6.33-6c0-3.6-2.42-5.94-6.33-5.94Zm14.45,21.4H397.31v14H412c4,0,7.89-1.57,7.89-6.88C419.88,50.75,417,48.18,411.76,48.18Z"/><path class="cls-1" d="M470.8,71.6H461V67.93a13.18,13.18,0,0,1-10.23,4.61c-9.53,0-15.85-7.1-15.85-17.65V31.39h10.31v23.5c0,2.27.78,7.89,7.49,7.89a7.61,7.61,0,0,0,7.81-7.89V31.39H470.8Z"/><path class="cls-1" d="M486.73,55.52a10.23,10.23,0,0,0,10.07,8,9.33,9.33,0,0,0,8.51-4.68h11C514,67,506.88,72.54,496.88,72.54a20.84,20.84,0,0,1-20.62-21c0-11.64,9.3-21.17,20.62-21.17,11.87,0,21.71,9.22,20.23,25.15Zm20.15-8.44a10.09,10.09,0,0,0-10.08-7.65c-4.68,0-8.43,3-9.91,7.65Z"/><path class="cls-1" d="M558.65,71.6H548.34V48.1c0-2.34-.7-8-7.49-8a7.63,7.63,0,0,0-7.81,8V71.6H522.73V31.39h9.84v3.9A13.3,13.3,0,0,1,543,30.37c9.44,0,15.69,7.11,15.69,17.73Z"/><path class="cls-1" d="M604.41,51.54c0,12-9.13,21-20.3,21s-20.22-9-20.22-21,9.05-21.17,20.22-21.17S604.41,39.51,604.41,51.54ZM594,51.61c0-7-4.45-11.79-9.92-11.79s-9.92,4.84-9.92,11.79c0,6.8,4.46,11.48,9.92,11.48S594,58.41,594,51.61Z"/><path class="cls-1" d="M626.21,72.54c-10.23,0-17.81-5.39-19.06-14.05h10.46c1.41,3.43,5.55,4.68,8.6,4.68,4.13,0,7.26-1.25,7.26-3.59s-1.41-3.2-8.44-4.3-16.79-3-16.79-12c0-6.33,5.55-12.89,17.18-12.89,9.22,0,16.09,5,17.42,12.58h-10.7c-.63-1.88-2.89-3.36-6.72-3.36-4.76,0-6.71,1.72-6.71,3.2,0,2.11,3,2.81,8,3.59,10,1.64,17.18,3.83,17.18,12.57C643.85,66.92,636.51,72.54,626.21,72.54Z"/><path class="cls-1" d="M442.06,126l-3.67,10.85H427.46l18.9-54.19h13l18.89,54.19H467.36L463.69,126Zm10.78-31.86-7.58,22.26h15.15Z"/><path class="cls-1" d="M492.74,92.25h-10.3V82.64h10.3Zm0,44.58h-10.3V96.62h10.3Z"/><path class="cls-1" d="M536.79,115.36H526.48v-2c0-2.34-.7-8-7.5-8a7.63,7.63,0,0,0-7.81,8v23.5h-10.3V96.62h9.83v3.9a13.31,13.31,0,0,1,10.39-4.92c9.45,0,15.7,7.11,15.7,17.73Z"/><path class="cls-1" d="M550.3,120.75a10.23,10.23,0,0,0,10.07,8,9.33,9.33,0,0,0,8.51-4.68h11c-2.34,8.2-9.44,13.74-19.44,13.74a20.84,20.84,0,0,1-20.62-21c0-11.64,9.3-21.17,20.62-21.17,11.87,0,21.71,9.22,20.23,25.15Zm20.15-8.44a10.09,10.09,0,0,0-10.08-7.65c-4.68,0-8.43,3-9.92,7.65Z"/><path class="cls-1" d="M602.62,137.77c-10.23,0-17.8-5.39-19-14.05H594c1.41,3.43,5.54,4.68,8.59,4.68,4.14,0,7.26-1.25,7.26-3.59s-1.4-3.2-8.43-4.3c-7.19-1.09-16.79-3-16.79-12,0-6.33,5.54-12.89,17.18-12.89,9.21,0,16.08,5,17.41,12.58h-10.7c-.62-1.88-2.88-3.36-6.71-3.36-4.76,0-6.72,1.72-6.72,3.2,0,2.11,3,2.81,8,3.59,10,1.64,17.18,3.83,17.18,12.57C620.27,132.15,612.93,137.77,602.62,137.77Z"/><path class="cls-1" d="M478.3,203c-14.76,0-26.24-12.42-26.24-28.27s11.48-28.27,26.24-28.27c12.26,0,21.32,6.95,24.67,18H491.81a14.93,14.93,0,0,0-13.51-8.59c-8.9,0-15.93,8.59-15.93,18.82s7,18.9,15.93,18.9a15.15,15.15,0,0,0,13.51-8.75H502.9C499.46,195.9,490.32,203,478.3,203Z"/><path class="cls-1" d="M518.44,157.48H508.13v-9.61h10.31Zm0,44.58H508.13V161.85h10.31Z"/><path class="cls-1" d="M561.78,202.06h-9.84v-3.67A13.18,13.18,0,0,1,541.71,203c-9.53,0-15.85-7.1-15.85-17.65v-23.5h10.31v23.5c0,2.27.78,7.89,7.49,7.89a7.61,7.61,0,0,0,7.81-7.89v-23.5h10.31Z"/><path class="cls-1" d="M608.55,202.06h-9.83v-4.29a16.86,16.86,0,0,1-12.34,5.15c-10.47,0-19.13-9.06-19.13-20.92s8.66-21,19.13-21a16.92,16.92,0,0,1,11.87,4.69V144h10.3Zm-20.61-31.54c-5.7,0-10.31,5-10.31,11.55,0,6.41,4.61,11.33,10.31,11.33s10.31-5.08,10.31-11.33C598.25,175.67,593.64,170.52,587.94,170.52Z"/><path class="cls-1" d="M655.57,202.06h-9.84v-4.29a16.73,16.73,0,0,1-12.34,5.15c-10.46,0-19.13-9.06-19.13-20.92s8.67-21,19.13-21a16.73,16.73,0,0,1,12.34,5.15v-4.29h9.84ZM635,170.52c-5.7,0-10.31,5-10.31,11.55,0,6.41,4.61,11.33,10.31,11.33s10.31-5.08,10.31-11.33C645.26,175.67,640.65,170.52,635,170.52Z"/><path class="cls-1" d="M702.5,202.06h-9.84v-4.29a16.84,16.84,0,0,1-12.34,5.15c-10.46,0-19.13-9.06-19.13-20.92s8.67-21,19.13-21a16.88,16.88,0,0,1,11.87,4.69V144H702.5Zm-20.62-31.54c-5.7,0-10.3,5-10.3,11.55,0,6.41,4.6,11.33,10.3,11.33s10.31-5.08,10.31-11.33C692.19,175.67,687.58,170.52,681.88,170.52Z"/><path class="cls-1" d="M421.56,181.35,339.91,23.59A42.73,42.73,0,0,0,301.69,0h0a42.73,42.73,0,0,0-38.22,23.59L206,134.63a57.21,57.21,0,0,0-29-25.21,54.91,54.91,0,0,0-7-93.3,111.54,111.54,0,0,0-52.09-12.8H32A31.93,31.93,0,0,0,0,35.26v160a31.92,31.92,0,0,0,32,31.93h93a127.89,127.89,0,0,0,50.46-10.33l5.9-2.85c.33-.16.65-.33,1-.5a31.92,31.92,0,0,0,56.44-3.26,17,17,0,0,1,14.82-10.3h96.32a17,17,0,0,1,14.83,10.3,31.94,31.94,0,0,0,61-13.16A31.33,31.33,0,0,0,421.56,181.35Z"/></g></g></svg>